<?xml version="1.0" encoding="UTF-8" standalone="no"?>
<svg
   xmlns:dc="http://purl.org/dc/elements/1.1/"
   xmlns:cc="http://creativecommons.org/ns#"
   xmlns:rdf="http://www.w3.org/1999/02/22-rdf-syntax-ns#"
   xmlns:svg="http://www.w3.org/2000/svg"
   xmlns="http://www.w3.org/2000/svg"
   xmlns:xlink="http://www.w3.org/1999/xlink"
   xmlns:sodipodi="http://sodipodi.sourceforge.net/DTD/sodipodi-0.dtd"
   xmlns:inkscape="http://www.inkscape.org/namespaces/inkscape"
   version="1.1"
   id="svg2"
   xml:space="preserve"
   width="110.18997"
   height="208.50752"
   viewBox="0 0 110.18997 208.50752"
   sodipodi:docname="serinty.svg"
   inkscape:version="1.0.2 (e86c870879, 2021-01-15)"
   inkscape:export-filename="/home/sven/design/logo/serinty_page.png"
   inkscape:export-xdpi="200"
   inkscape:export-ydpi="200"><metadata
     id="metadata8"><rdf:RDF><cc:Work
         rdf:about=""><dc:format>image/svg+xml</dc:format><dc:type
           rdf:resource="http://purl.org/dc/dcmitype/StillImage" /><dc:title /></cc:Work></rdf:RDF></metadata><defs
     id="defs6"><inkscape:path-effect
       effect="clone_original"
       id="path-effect2915"
       is_visible="true"
       lpeversion="1"
       linkeditem=""
       method="d"
       attributes=""
       css_properties=""
       allow_transforms="true" /><linearGradient
       inkscape:collect="always"
       id="linearGradient2907"><stop
         style="stop-color:#004235;stop-opacity:1;"
         offset="0"
         id="stop2903" /><stop
         style="stop-color:#00ffcd;stop-opacity:0"
         offset="1"
         id="stop2905" /></linearGradient><linearGradient
       inkscape:collect="always"
       xlink:href="#linearGradient2907"
       id="linearGradient2909"
       x1="486.13327"
       y1="285.77289"
       x2="568.4353"
       y2="294.93484"
       gradientUnits="userSpaceOnUse"
       gradientTransform="translate(-148.31035,-3.9614204)" /><filter
       inkscape:collect="always"
       style="color-interpolation-filters:sRGB"
       id="filter2911"
       x="-0.00014057576"
       width="1.0002812"
       y="-7.4280229e-05"
       height="1.0001487"><feGaussianBlur
         inkscape:collect="always"
         stdDeviation="0.0048392766"
         id="feGaussianBlur2913" /></filter></defs><sodipodi:namedview
     pagecolor="#ffffff"
     bordercolor="#666666"
     borderopacity="1"
     objecttolerance="10"
     gridtolerance="10"
     guidetolerance="10"
     inkscape:pageopacity="0"
     inkscape:pageshadow="2"
     inkscape:window-width="1857"
     inkscape:window-height="1044"
     id="namedview4"
     showgrid="false"
     inkscape:zoom="1.0725"
     inkscape:cx="10.424104"
     inkscape:cy="146.66905"
     inkscape:window-x="63"
     inkscape:window-y="0"
     inkscape:window-maximized="1"
     inkscape:current-layer="g10"
     inkscape:document-rotation="0" /><g
     id="g10"
     inkscape:groupmode="layer"
     inkscape:label="ink_ext_XXXXXX"
     transform="matrix(1.3333333,0,0,-1.3333333,-450.41506,480.00238)"><g
       id="g2919"><path
         d="m 414.433,284.808 v 36.872 c 0,21.12 -17.183,38.303 -38.304,38.303 -20.876,0 -37.905,-16.788 -38.297,-37.572 l -0.007,-0.731 h 0.005 c 0.157,-11.807 4.146,-20.688 12.18,-27.131 7.149,-5.733 16.631,-8.899 25.8,-11.96 17.858,-5.961 34.731,-11.594 34.919,-34.988 -0.18,-18.927 -15.632,-34.268 -34.6,-34.268 -19.08,0 -34.603,15.522 -34.603,34.602 v 36.873 h -3.701 v -36.873 c 0,-21.121 17.183,-38.304 38.304,-38.304 20.875,0 37.905,16.789 38.297,37.573 l 0.007,0.731 h -0.006 c -0.348,25.784 -19.204,32.076 -37.445,38.165 -18.133,6.053 -35.267,11.773 -35.454,35.91 0.172,18.308 14.637,33.262 32.75,34.221 v -48.847 h 3.701 v 48.847 c 18.223,-0.965 32.752,-16.092 32.752,-34.551 v -36.872 h 3.702"
         style="fill:#004235;fill-opacity:1;fill-rule:nonzero;stroke:none;stroke-width:0.84975;stroke-miterlimit:4;stroke-dasharray:none"
         id="path14" /><path
         id="path14-3"
         style="mix-blend-mode:normal;fill:url(#linearGradient2909);fill-opacity:1;fill-rule:nonzero;stroke:none;stroke-width:0.09975;stroke-miterlimit:4;stroke-dasharray:none;paint-order:normal;filter:url(#filter2911)"
         d="m 378.11011,203.64394 c -11.44061,0.21628 -22.64499,5.52311 -30.1211,14.17578 -6.56634,7.51554 -10.30777,17.46687 -10.15391,27.46047 -0.0238,13.17575 -0.003,26.35189 -0.0101,39.52781 3.23372,0 6.46745,0 9.70117,0 0.0142,-13.78149 -0.038,-27.56412 0.0359,-41.34489 0.31429,-7.80187 3.7182,-15.39181 9.26044,-20.88034 3.564,-3.58945 8.01202,-6.28684 12.83844,-7.79821 0.56531,-0.17861 1.44138,-0.43101 2.13945,-0.59181 7.96865,-1.91345 16.67466,-0.60481 23.65985,3.70932 2.04441,1.23349 3.94079,2.70673 5.66359,4.35905 0.33001,0.33096 0.91665,0.90992 1.32198,1.36093 5.65297,6.13644 8.7168,14.57779 8.2294,22.91489 -0.29318,5.29077 -1.66624,10.69181 -4.93123,14.9598 -3.54798,4.82029 -8.89637,7.88979 -14.27603,10.26478 -10.84299,4.6746 -22.72333,7.14951 -33.23258,12.80558 -5.65683,2.99701 -10.80306,7.14577 -14.35924,12.51732 -3.97088,5.88824 -5.7249,13.01031 -6.01377,20.04114 -0.51009,11.25237 3.95128,22.60434 11.90217,30.57336 7.84332,8.0124 19.06881,12.58506 30.28265,12.27658 10.8593,-0.19694 21.53804,-4.93232 28.98996,-12.83219 7.26637,-7.59755 11.49445,-18.04939 11.38524,-28.57735 0.0234,-13.25241 0.003,-26.50534 0.01,-39.75796 -3.23372,0 -6.46745,0 -9.70117,0 -0.016,13.80311 0.0421,27.60736 -0.04,41.40974 -0.0878,1.88169 -0.37546,3.98018 -0.8432,5.89787 -2.40318,10.16829 -10.20951,18.85749 -20.07281,22.31427 -1.8774,0.67913 -3.82288,1.16928 -5.79592,1.47187 0,-16.17253 0,-32.34505 0,-48.51758 -3.23373,0 -6.46745,0 -9.70117,0 0,16.17643 0,32.35287 0,48.5293 -0.99274,-0.15182 -2.03843,-0.3692 -2.89495,-0.58917 -3.86638,-0.98099 -7.53192,-2.7212 -10.76716,-5.05146 -0.4444,-0.32843 -1.15286,-0.86204 -1.67335,-1.30189 -5.90714,-4.86235 -9.91824,-11.94637 -11.05322,-19.51256 -0.0598,-0.34947 -0.13753,-1.03916 -0.18359,-1.39258 -0.43919,-4.36641 -0.027,-8.82779 1.20045,-13.04054 1.3091,-4.45815 3.89785,-8.52645 7.4457,-11.53606 5.16077,-4.43497 11.58953,-6.99012 17.91827,-9.26762 9.61788,-3.44476 19.66404,-6.05923 28.49092,-11.36214 6.51755,-3.8334 12.05839,-9.59938 14.84727,-16.69792 1.78831,-4.34562 2.54832,-9.04092 2.80247,-13.709 0.36645,-9.19644 -2.50416,-18.47098 -7.95042,-25.88769 -5.97863,-8.21762 -15.08415,-14.07721 -25.04526,-16.09757 -3.05619,-0.63851 -6.18507,-0.89306 -9.3051,-0.82333 z" /></g></g></svg>
